{"title":"Mission Impossible Rogue Nation 2015 FULL TS XviD AC3-MenaceIISo","uid":12205452,"size":1497372315,"categoryP":"video","categoryS":"movies","magnet":"?xt=urn:btih:b6d36abc0626bc44d52cbb1d13da398dc2eb9fcd&amp;dn=Mission+Impossible+Rogue+Nation+2015+FULL+TS+XviD+AC3-MenaceIISo&amp;tr=udp%3A%2F%2Ftracker.openbittorrent.com%3A80&amp;tr=udp%3A%2F%2Fopen.demonii.com%3A1337&amp;tr=udp%3A%2F%2Ftracker.coppersurfer.tk%3A6969&amp;tr=udp%3A%2F%2Fexodus.desync.com%3A6969","seeders":5,"leechers":4,"uploader":"SS132203","files":4,"time":1438938502,"description":"Mission Impossible Rogue Nation 2015 FULL TS XviD AC3-MenaceIISociety\n &lt;a href=&quot;\nhttp://imgsparrow.co/image/89k&quot; rel=&quot;nofollow&quot; target=&quot;_NEW&quot;&gt;\nhttp://imgsparrow.co/image/89k&lt;/a&gt;\n &lt;a href=&quot;\nhttp://imgsparrow.co/image/9b&quot; rel=&quot;nofollow&quot; target=&quot;_NEW&quot;&gt;\nhttp://imgsparrow.co/image/9b&lt;/a&gt;\n\nInfo : - \n\nThank MenaceIISociety Not ME!\n &lt;a href=&quot;\nhttp://www.imdb.com/title/tt2381249/&quot; rel=&quot;nofollow&quot; target=&quot;_NEW&quot;&gt;\nhttp://www.imdb.com/title/tt2381249/&lt;/a&gt;\nSource: 720p-HiVE-CM8 [THANKS]\n\nNOTE: Improved a few things, 1st was color, dark areas http://imgur.com/a/YVpEF\n2nd was perspective, i pulled top right up more since this shot too so its pretty bang on now but cropped.http://s18.postimg.org/6xyl1sbpl/screenshot_43.png\nEnjoy.\n\nGeneral\nComplete name: Mission.Impossible.Rogue.Nation.2015.FULL.TS.XviD.AC3-MenaceIISociety.avi\nFormat: AVI\nFormat/Info: Audio Video Interleave\nFile size: 1.36 GiB\nDuration: 2h 4mn\nOverall bit rate: 1 564 Kbps\n\nVideo\nID: 0\nFormat: MPEG-4 Visual\nFormat profile: Advanced Simple@L5\nFormat settings, BVOP: 2\nFormat settings, QPel: No\nFormat settings, GMC: No warppoints\nFormat settings, Matrix: Default (H.263)\nMuxing mode: Packed bitstream\nCodec ID: XVID\nCodec ID/Hint: XviD\nDuration: 2h 4mn\nBit rate: 1 300 Kbps\nWidth: 720 pixels\nHeight: 256 pixels\nDisplay aspect ratio: 2.813\nFrame rate: 25.000 fps\nColor space: YUV\nChroma subsampling: 4:2:0\nBit depth: 8 bits\nScan type: Progressive\nCompression mode: Lossy\nBits/(Pixel*Frame): 0.282\nStream size: 1.13 GiB (83%)\nWriting library: XviD 73\n\nAudio\nID: 1\nFormat: AC-3\nFormat/Info: Audio Coding 3\nMode extension: CM (complete main)\nFormat settings, Endianness: Big\nCodec ID: 2000\nDuration: 2h 4mn\nBit rate mode: Constant\nBit rate: 256 Kbps\nChannel(s): 2 channels\nChannel positions: Front: L R\nSampling rate: 48.0 KHz\nCompression mode: Lossy\nStream size: 228 MiB (16%)\nAlignment: Split accross interleaves\nInterleave, duration: 64 ms (1.60 video frames)\nInterleave, preload duration: 192 ms \n\nScreens : - \n &lt;a href=&quot;\nhttp://imgsparrow.co/image/8tR&quot; rel=&quot;nofollow&quot; target=&quot;_NEW&quot;&gt;\nhttp://imgsparrow.co/image/8tR&lt;/a&gt; &lt;a href=&quot;\nhttp://imgsparrow.co/image/8tv&quot; rel=&quot;nofollow&quot; target=&quot;_NEW&quot;&gt;\nhttp://imgsparrow.co/image/8tv&lt;/a&gt; &lt;a href=&quot;\nhttp://imgsparrow.co/image/8tx&quot; rel=&quot;nofollow&quot; target=&quot;_NEW&quot;&gt;\nhttp://imgsparrow.co/image/8tx&lt;/a&gt; &lt;a href=&quot;\nhttp://imgsparrow.co/image/8tC&quot; rel=&quot;nofollow&quot; target=&quot;_NEW&quot;&gt;\nhttp://imgsparrow.co/image/8tC&lt;/a&gt; &lt;a href=&quot;\nhttp://imgsparrow.co/image/8t1&quot; rel=&quot;nofollow&quot; target=&quot;_NEW&quot;&gt;\nhttp://imgsparrow.co/image/8t1&lt;/a&gt; &lt;a href=&quot;\nhttp://imgsparrow.co/image/8E6&quot; rel=&quot;nofollow&quot; target=&quot;_NEW&quot;&gt;\nhttp://imgsparrow.co/image/8E6&lt;/a&gt; &lt;a href=&quot;\nhttp://imgsparrow.co/image/8E8&quot; rel=&quot;nofollow&quot; target=&quot;_NEW&quot;&gt;\nhttp://imgsparrow.co/image/8E8&lt;/a&gt; &lt;a href=&quot;\nhttp://imgsparrow.co/image/8E9&quot; rel=&quot;nofollow&quot; target=&quot;_NEW&quot;&gt;\nhttp://imgsparrow.co/image/8E9&lt;/a&gt; &lt;a href=&quot;\nhttp://imgsparrow.co/image/8EL&quot; rel=&quot;nofollow&quot; target=&quot;_NEW&quot;&gt;\nhttp://imgsparrow.co/image/8EL&lt;/a&gt; &lt;a href=&quot;\nhttp://imgsparrow.co/image/8EN&quot; rel=&quot;nofollow&quot; target=&quot;_NEW&quot;&gt;\nhttp://imgsparrow.co/image/8EN&lt;/a&gt;\n &lt;a href=&quot;\nhttp://imgsparrow.co/image/N2&quot; rel=&quot;nofollow&quot; target=&quot;_NEW&quot;&gt;\nhttp://imgsparrow.co/image/N2&lt;/a&gt;","torrent":{"xt":"urn:btih:b6d36abc0626bc44d52cbb1d13da398dc2eb9fcd","amp;dn":"Mission+Impossible+Rogue+Nation+2015+FULL+TS+XviD+AC3-MenaceIISo","amp;tr":["udp%3A%2F%2Ftracker.openbittorrent.com%3A80","udp%3A%2F%2Fopen.demonii.com%3A1337","udp%3A%2F%2Ftracker.coppersurfer.tk%3A6969","udp%3A%2F%2Fexodus.desync.com%3A6969"],"infoHash":"b6d36abc0626bc44d52cbb1d13da398dc2eb9fcd","infoHashBuffer":{"type":"Buffer","data":[182,211,106,188,6,38,188,68,213,44,187,29,19,218,57,141,194,235,159,205]},"announce":[],"urlList":[]}}